<svg xmlns="http://www.w3.org/2000/svg" width="133" height="118" viewBox="0 0 133 118" fill="none">
<path d="M131.13 17.6088L29.5165 56.9344L27.2886 59.5303C37.1423 57.9331 36.6166 62.2636 42.3299 62.8984C36.4953 66.4889 31.1298 75.8937 25.275 77.2846C20.5079 78.4208 11.6085 80.7255 8.47083 81.5423L9.53674e-07 91.4728L1.95294 95.1563L129.864 52.6929L132.622 19.3838L131.13 17.6088Z" fill="#07001C"/>
<path d="M107.509 93.3732C103.3 89.7827 104.412 78.9707 101.565 73.3545C107.226 75.1255 111.649 71.6401 120.569 78.809L120.864 72.744L33.9642 7.16479L2.30876 29.6095L0.634808 31.8373L116.275 117.455L118.782 115.535L119.348 103.866C117.079 101.808 110.901 96.2642 107.509 93.3732Z" fill="#07001C"/>
<path d="M120.573 78.8091L118.406 80.4952C116.565 78.6688 114.305 77.3209 111.823 76.5691C107.877 75.4531 106.195 77.2443 100.805 75.1539C100.335 74.7227 100.042 74.1326 99.9822 73.4977C99.9224 72.8628 100.1 72.2283 100.481 71.717L112.648 72.1214L120.573 78.8091Z" fill="#07001C"/>
<path d="M107.509 93.3732C103.3 89.7827 104.412 78.9707 101.565 73.3545C107.226 75.1255 111.649 71.6401 120.569 78.809L120.864 72.744L28.9302 4.76709L2.30876 29.6095L118.794 115.523L119.36 103.854C117.079 101.808 110.901 96.2642 107.509 93.3732Z" fill="#26004B"/>
<path d="M75.449 39.1599L35.9818 54.4357L63.4928 74.7293L104.945 60.9657L75.449 39.1599Z" fill="#07001C"/>
<path d="M27.2886 59.5303L28.5016 62.2879C28.5016 62.2879 31.429 60.6705 34.3564 62.2879C37.2838 63.9052 39.7421 66.2665 44.3394 65.0616C44.9037 63.4657 44.9037 61.7246 44.3394 60.1287C44.3394 60.1287 33.9359 56.9344 33.7054 56.9344C33.4749 56.9344 27.2886 59.5303 27.2886 59.5303Z" fill="#07001C"/>
<path d="M29.5165 56.9344L27.2886 59.5303C37.1423 57.9331 36.6166 62.2636 42.3299 62.8984C36.4953 66.4889 31.1298 75.8937 25.275 77.2846C20.5079 78.4208 11.6085 80.7255 8.47083 81.5423L9.53674e-07 91.4728L127.726 50.5015L131.13 17.6088L29.5165 56.9344Z" fill="#26004B"/>
<path d="M75.6754 37.2555L28.9302 52.7698L56.7323 73.3546L59.7689 72.3033L75.6754 37.2555Z" fill="#07001C"/>
<path d="M75.6754 37.2555L32.2013 51.6862L59.7689 72.3033L75.6754 37.2555Z" fill="#07001C"/>
<path d="M4.94907 28.7483C4.94907 28.7483 52.596 65.5428 54.3589 66.8286C56.1218 68.1144 59.7487 70.3585 65.4134 68.5915C71.0781 66.8246 125.902 49.1834 125.902 49.1834L129.856 16.0037L129.501 15.1182L75.166 31.9062L33.9237 1.62549L4.94907 27.7698V28.7483Z" fill="#07001C"/>
<path d="M4.94907 27.7697C4.94907 27.7697 52.596 64.5643 54.3589 65.8541C56.1218 67.1439 59.7487 69.3799 65.4134 67.617C71.0781 65.8541 125.134 48.4838 125.134 48.4838L129.501 15.1383L75.166 30.9074L33.9237 0.630737L4.94907 27.7697Z" fill="#9A87D1"/>
<path d="M36.2487 0L6.43298 27.4948L54.0799 64.2893C54.0799 64.2893 56.6838 63.0763 58.5276 63.0763C60.3713 63.0763 64.3783 66.7154 64.3783 66.7154L122.801 47.6752L127.447 14.7016L122.429 12.4737L76.4639 28.9787L38.0075 0L36.2487 0Z" fill="#D0C5EF"/>
<path d="M123.383 12.8619C122.93 15.571 122.441 18.2719 121.948 20.9729L120.415 29.0596L118.798 37.1463L117.961 41.1897L117.083 45.2088L117.783 41.1654L118.519 37.1221L120.047 29.0354L121.665 20.9486C122.223 18.2275 122.781 15.5427 123.383 12.8619Z" fill="#BBA3FF"/>
<path d="M124.091 13.3229C123.686 15.9915 123.282 18.652 122.821 21.3125L121.45 29.286L119.999 37.2434L119.243 41.218L118.434 45.1845L119.053 41.1856L119.708 37.1948L121.086 29.2052L122.542 21.2479C123.039 18.6116 123.545 15.9632 124.091 13.3229Z" fill="#BBA3FF"/>
<path d="M125.021 13.7393C124.645 16.4119 124.212 19.0765 123.808 21.7411L122.514 29.7226L121.103 37.6961L120.375 41.6748L119.611 45.6494L120.197 41.6465L120.819 37.6476L122.13 29.666L123.529 21.6966C124.006 19.0401 124.495 16.3836 125.021 13.7393Z" fill="#BBA3FF"/>
<path d="M125.926 14.1315C125.57 16.8041 125.178 19.4727 124.778 22.1373L123.533 30.127L122.198 38.1005L121.503 42.0832L120.771 46.0578L121.325 42.0508L121.919 38.052L123.165 30.0623L124.495 22.0888C124.94 19.4363 125.421 16.7799 125.926 14.1315Z" fill="#BBA3FF"/>
<path d="M126.816 14.552C126.48 17.257 126.104 19.958 125.72 22.6387L124.527 30.7254L123.25 38.8121L122.582 42.8555L121.875 46.8988L122.4 42.8555L122.967 38.8121L124.18 30.7254L125.457 22.6387C125.882 19.9054 126.327 17.2327 126.816 14.552Z" fill="#BBA3FF"/>
<path d="M11.2648 26.0999C11.2648 26.0999 22.0363 33.8105 31.1338 38.9092C40.2314 44.0079 57.3226 56.6474 58.5316 63.0561C64.0184 57.5086 70.9851 50.3398 84.1018 48.9489C97.2184 47.5579 113.452 45.884 115.68 44.582C116.796 39.0103 122.461 12.4454 122.461 12.4454C118.009 13.2929 113.512 13.8829 108.993 14.2124C102.03 14.6733 80.3859 19.2262 76.4841 28.9787C73.3262 21.1751 68.6845 16.5333 59.6759 12.4454C50.6673 8.35762 38.0075 0 38.0075 0L11.2648 26.0999Z" fill="#F4EFFB"/>
<path d="M58.5397 63.0642C64.0184 57.5086 70.9851 50.3398 84.1018 48.9488C97.2184 47.5579 113.452 45.884 115.68 44.582C116.796 39.0103 122.461 12.4454 122.461 12.4454C118.009 13.2929 113.512 13.8829 108.993 14.2124C102.03 14.6733 80.3859 19.2261 76.4841 28.9787L58.5397 63.0642Z" fill="#F4EFFB"/>
<path d="M93.5551 49.1348C68.7896 54.0879 58.5397 63.0641 58.5397 63.0641C60.3956 63.0641 64.3904 66.7032 64.3904 66.7032L122.813 47.663C122.813 47.663 117.961 45.5605 115.66 44.5981C112.81 46.2236 107.614 46.2438 93.5551 49.1348Z" fill="#F4EFFB"/>
<path d="M43.5874 45.14C35.6907 39.7543 11.2648 26.0999 11.2648 26.0999L6.41276 27.4908L54.0597 64.2853C54.0597 64.2853 56.6636 63.0723 58.5073 63.0723C59.4697 57.3065 51.48 50.5258 43.5874 45.14Z" fill="#F4EFFB"/>
<path d="M43.5874 45.14C35.6907 39.7543 11.2648 26.0999 11.2648 26.0999C11.2648 26.0999 42.7504 47.1819 46.7452 49.8788C50.7401 52.5757 58.2607 59.4454 58.5397 63.0642C59.4697 57.3065 51.48 50.5258 43.5874 45.14Z" fill="#AC98FC"/>
<path d="M10.7998 27.3088C10.7998 27.3088 51.387 56.0167 58.5397 63.0642C53.3399 56.1016 23.8962 34.9548 10.7998 27.3088Z" fill="#AC98FC"/>
<path d="M9.46954 27.3088L15.3809 31.6271L21.2721 35.9778L33.018 44.7276L44.7074 53.5462L50.5379 57.9817L56.3401 62.4456L50.4287 58.1273L44.5376 53.7766L32.7916 45.0268L21.1023 36.2042L15.2718 31.7727L9.46954 27.3088Z" fill="#AC98FC"/>
<path d="M60.3956 63.0642C62.5507 61.8957 64.7422 60.8 66.9377 59.7083C69.1333 58.6166 71.3612 57.5976 73.6012 56.5949C74.7212 56.0895 75.8453 55.6002 76.9814 55.1352C78.1176 54.6702 79.2538 54.2133 80.4264 53.809C82.7675 53.0286 85.149 52.41 87.5346 51.8278C89.9202 51.2455 92.326 50.7684 94.7277 50.2872C97.1295 49.8061 99.5312 49.3249 101.945 48.8882C104.359 48.4516 106.745 48.0028 109.171 47.5297C111.582 47.1115 113.968 46.5621 116.319 45.884C115.173 46.3258 114.001 46.6971 112.81 46.996C111.625 47.3154 110.432 47.5984 109.243 47.8855C106.85 48.4313 104.456 48.9368 102.058 49.4503C97.2669 50.4652 92.4594 51.4073 87.7085 52.5515C85.331 53.1055 82.9575 53.6998 80.6487 54.4519C79.5004 54.832 78.3602 55.2606 77.224 55.7296L73.8276 57.1043C71.5674 58.0424 69.3233 59.0209 67.0914 60.0236C64.8594 61.0264 62.6235 62.0453 60.3956 63.0642Z" fill="#AC98FC"/>
<path d="M62.3 63.5737C66.6884 61.579 71.1563 59.7757 75.7037 58.1637C77.9707 57.355 80.262 56.5989 82.5774 55.8954C83.7258 55.5355 84.8902 55.2202 86.0507 54.8886C87.2111 54.557 88.3837 54.27 89.5522 53.9829C94.2263 52.8305 98.8883 51.6175 103.542 50.3883C105.871 49.7765 108.196 49.1484 110.517 48.5041C111.677 48.1847 112.838 47.8653 113.99 47.5257C115.143 47.186 116.303 46.8504 117.435 46.438C112.911 48.0958 108.253 49.3533 103.619 50.6633C98.9854 51.9733 94.3193 53.158 89.6412 54.3427C84.959 55.4587 80.3415 56.8698 75.8048 58.4306C73.5298 59.2069 71.2668 60.0277 69.016 60.893C66.7558 61.7461 64.5158 62.6316 62.3 63.5737Z" fill="#AC98FC"/>
<path d="M58.4224 55.3454L58.0464 54.6742C56.7849 52.4948 50.8775 47.19 44.857 43.3528C39.1033 39.6815 22.1172 28.6027 21.9433 28.4935L21.539 28.2105L43.2194 5.75366L43.5631 5.98413C43.7087 6.06904 58.1192 14.3579 63.7556 18.0333C69.3921 21.7087 73.7912 27.4301 73.8357 27.4907L74.1268 27.98L74.0662 28.0851C73.9813 28.2388 65.4417 43.3326 58.5842 55.0866L58.4224 55.3454ZM22.3355 28.2954C24.2197 29.5084 39.633 39.5682 45.0551 43.0334C50.4772 46.4985 56.4938 51.6215 58.2041 54.2214C64.722 43.0374 72.6874 28.9746 73.4637 27.5999C72.8653 26.8398 68.7532 21.7209 63.5535 18.3285C58.2081 14.8431 44.954 7.18905 43.5025 6.36421L22.3355 28.2954Z" fill="#26004B"/>
<path d="M64.6937 55.1796L63.8203 56.0651L78.4087 27.7617H78.429C78.4775 27.7091 83.4144 22.5336 89.1479 20.4391C97.8047 17.4915 112.575 16.0157 112.725 15.9915L113.699 15.8944L113.618 16.1613L105.443 42.3541L105.406 42.4754L104.598 42.5563C72 44.7357 64.7786 55.0826 64.6937 55.1796ZM78.7322 27.9921L65.3891 53.9181C68.2195 51.1686 78.0731 43.9957 104.464 42.1924C106.643 35.2136 111.795 18.6965 112.514 16.3917C110.432 16.6101 97.2589 18.0738 89.3056 20.7788C83.8147 22.7641 79.0597 27.6323 78.7322 27.9921Z" fill="#26004B"/>
</svg>