<svg xmlns="http://www.w3.org/2000/svg" version="1.1" xmlns:xlink="http://www.w3.org/1999/xlink" xmlns:svgjs="http://svgjs.com/svgjs" width="512" height="512" x="0" y="0" viewBox="0 0 512 512" style="enable-background:new 0 0 512 512" xml:space="preserve"><g><path d="m444.817 403.429-90.768-56.533-70.907 44.124 40.405 25.143a7.5 7.5 0 0 0 3.963 1.132h113.342a7.5 7.5 0 0 0 3.965-13.866zM510.181 102.552c-3.879-7.146-12.744-9.901-19.989-6.212l-11.618 5.916c-23.402 10.299-47.141 11.189-72.074 12.124-66.657-.093-113.899 19.57-150.5 85.167-36.633-65.631-83.841-85.249-150.5-85.167-24.933-.936-48.671-1.826-72.074-12.125L21.808 96.34c-7.243-3.688-16.109-.934-19.989 6.212-3.878 7.146-1.357 16.081 5.684 20.146a140.495 140.495 0 0 0 12.82 6.551l133.482 67.965 98.515 49.731c2.549 1.219 5.122 1.234 7.842-.142l113.685-57.559 117.83-59.995a140.365 140.365 0 0 0 12.82-6.551c7.042-4.065 9.562-13 5.684-20.146zM226.312 267.422 24.466 165.529c-5.007 12.506-6.094 26.24-2.973 39.684 4.022 17.328 14.515 32.021 29.543 41.373l104.412 64.973zM270.916 274.984 64.687 403.429a7.499 7.499 0 0 0 3.965 13.866h113.342c1.4 0 2.773-.392 3.963-1.132l272.512-169.578c15.029-9.352 25.521-24.044 29.544-41.373 3.049-13.133 2.092-26.545-2.621-38.817z" fill="#000000" data-original="#000000"></path></g></svg>